<?xml version="1.0" encoding="UTF-8" standalone="no"?>
<!-- Created with Inkscape (http://www.inkscape.org/) -->

<svg
   xmlns:dc="http://purl.org/dc/elements/1.1/"
   xmlns:cc="http://creativecommons.org/ns#"
   xmlns:rdf="http://www.w3.org/1999/02/22-rdf-syntax-ns#"
   xmlns:svg="http://www.w3.org/2000/svg"
   xmlns="http://www.w3.org/2000/svg"
   xmlns:xlink="http://www.w3.org/1999/xlink"
   xmlns:sodipodi="http://sodipodi.sourceforge.net/DTD/sodipodi-0.dtd"
   xmlns:inkscape="http://www.inkscape.org/namespaces/inkscape"
   id="svg2"
   version="1.1"
   inkscape:version="0.91 r13725"
   width="913.75"
   height="392.5"
   viewBox="0 0 913.75 392.5"
   sodipodi:docname="iungo_orange.svg">
  <metadata
     id="metadata8">
    <rdf:RDF>
      <cc:Work
         rdf:about="">
        <dc:format>image/svg+xml</dc:format>
        <dc:type
           rdf:resource="http://purl.org/dc/dcmitype/StillImage" />
      </cc:Work>
    </rdf:RDF>
  </metadata>
  <defs
     id="defs6" />
  <sodipodi:namedview
     pagecolor="#ffffff"
     bordercolor="#666666"
     borderopacity="1"
     objecttolerance="10"
     gridtolerance="10"
     guidetolerance="10"
     inkscape:pageopacity="0"
     inkscape:pageshadow="2"
     inkscape:window-width="1203"
     inkscape:window-height="623"
     id="namedview4"
     showgrid="false"
     inkscape:zoom="0.36114911"
     inkscape:cx="456.875"
     inkscape:cy="196.25"
     inkscape:window-x="0"
     inkscape:window-y="0"
     inkscape:window-maximized="0"
     inkscape:current-layer="svg2" />
  <image
     sodipodi:absref="/Users/phuong/Documents/workspace/iungo/images/iungo_orange.png"
     xlink:href="iungo_orange.png"
     y="0"
     x="0"
     id="image10"
     preserveAspectRatio="none"
     height="392.5"
     width="913.75" />
  <path
     style="fill:#fcb105"
     d="m 802.24715,378.4375 -0.37215,-7.8125 -105,0.2347 c -57.75,0.12909 -172.5,0.83519 -255,1.56913 C 213.4817,374.46066 134.14546,372.1193 82.936621,361.83584 28.126626,350.82922 7.1843429,327.93187 6.9449657,278.75 L 6.875,264.375 32.965801,264.03667 c 16.221605,-0.21035 26.665533,0.13865 27.610194,0.92266 0.835665,0.69355 2.205167,3.5499 3.043339,6.34747 1.767697,5.90005 9.095447,13.72656 16.286718,17.39528 7.401909,3.77616 25.185308,8.47197 40.093948,10.58703 36.55559,5.18608 85.71162,6.92155 196.875,6.95077 93.34305,0.0245 481.43091,-3.45663 483.99129,-4.34142 0.82021,-0.28345 1.66396,-3.21717 1.875,-6.51941 0.28538,-4.4655 0.87481,-5.97114 2.30017,-5.87561 1.05405,0.0706 10.53716,6.68001 21.07357,14.6875 10.5364,8.00748 19.65836,14.55906 20.27103,14.55906 0.61266,0 1.11394,-6.75 1.11394,-15 0,-10.4945 0.43295,-15 1.44139,-15 2.56725,0 60.95801,44.31391 60.94188,46.25 -0.0163,1.94519 -57.4627,50.31534 -60.60445,51.02915 -1.46833,0.33361 -1.77882,-2.44827 -1.77882,-15.9375 0,-12.41746 -0.38301,-16.34165 -1.59497,-16.34165 -0.87726,0 -10.29913,7.3036 -20.9375,16.23024 -10.63839,8.92662 -20.01882,16.23912 -20.84538,16.25 -0.97323,0.0128 -1.63401,-2.73349 -1.875,-7.79274 z M 776.875,249.35146 C 753.3482,244.85335 734.74996,234.63534 717.40583,216.67861 701.25779,199.96024 692.20565,183.95915 686.75588,162.5 c -3.43793,-13.53724 -3.17617,-44.1862 0.49295,-57.71929 11.61567,-42.843046 39.15826,-71.931932 79.88043,-84.365086 9.87197,-3.01407 12.91202,-3.354087 29.74574,-3.326923 16.66386,0.02689 19.97339,0.400411 29.74574,3.357179 34,10.28721 62.59862,35.761159 75.41352,67.173883 10.7735,26.408687 10.57765,62.987207 -0.48948,91.424277 -11.01647,28.30685 -35.84403,53.74366 -63.11449,64.66328 -17.59488,7.04533 -42.35293,9.31545 -61.55529,5.64414 z m 39.67877,-56.81724 c 9.31472,-3.51283 20.86048,-12.25462 26.70999,-20.22326 13.33784,-18.16976 15.33681,-47.28073 4.70584,-68.53081 -7.5333,-15.058177 -24.12496,-27.891629 -40.63807,-31.433056 -26.56002,-5.696104 -56.12102,12.67261 -65.12523,40.467736 -3.67139,11.33321 -3.66556,29.84757 0.0131,41.72177 5.85232,18.89029 22.95857,35.14659 42.15558,40.061 8.5883,2.1986 23.39522,1.24914 32.17877,-2.06338 z m -260.63648,55.57664 c -21.92289,-4.16735 -41.68074,-15.00834 -59.10028,-32.42787 -16.6452,-16.6452 -27.01156,-34.99338 -32.70467,-57.88635 -3.32918,-13.38722 -2.98173,-44.11936 0.65112,-57.59242 11.15085,-41.3548 43.99206,-72.753767 87.4399,-83.599896 12.04474,-3.006798 40.43813,-2.933319 51.96688,0.134484 18.06667,4.807542 36.65765,14.305672 46.54592,23.7803 5.083,4.870376 5.53289,5.803525 5.52212,11.454121 -0.0217,11.395077 -13.89937,29.852134 -24.93043,33.15712 -5.20394,1.559138 -5.39825,1.500427 -19.84412,-5.995904 -19.62159,-10.182141 -30.74627,-12.327149 -46.7147,-9.007307 -17.29674,3.595995 -35.11552,17.361791 -42.27357,32.658192 -11.36151,24.27899 -5.83413,53.94219 13.68945,73.46578 9.22233,9.22233 19.86409,15.24435 31.06074,17.57684 8.95434,1.86536 24.93365,0.84024 34.05846,-2.18495 l 6.84089,-2.268 0,-16.875 0,-16.875 L 590.41244,155 c -16.61275,-0.58619 -17.91368,-0.81399 -20.95154,-3.66859 -4.39559,-4.1304 -6.09464,-11.31477 -5.42706,-22.94814 0.41101,-7.16275 1.22361,-10.6374 3.06947,-13.125 4.54166,-6.12064 8.87151,-6.67897 48.57235,-6.2634 39.69389,0.41549 40.23498,0.51299 45.24443,8.15245 1.98232,3.02306 2.24252,7.82719 2.57744,47.58894 0.36227,43.00952 0.29903,44.37825 -2.2985,49.74404 -5.97445,12.34156 -26.68834,25.7285 -48.41924,31.29231 -15.67304,4.01282 -42.29448,5.10752 -56.8625,2.33825 z M 6.8069999,247.14854 C 6.4584741,246.2403 6.3311954,212.0572 6.5241582,171.18609 6.9168961,88.001064 6.5460515,91.346885 15.882436,86.754171 22.648241,83.425966 44.861714,83.373575 51.489299,86.670191 61.167608,91.484261 60.625,86.423592 60.625,171.875 l 0,76.25 -26.592159,0.33745 C 12.909049,248.7305 7.3103737,248.46031 6.8069999,247.14854 Z M 144.375,246.10904 C 124.59484,242.13677 105.5641,226.40109 95.761214,205.91242 87.098925,187.80769 86.875,186.0995 86.875,138.125 c 0,-39.970753 0.145511,-42.740564 2.445079,-46.542302 3.976526,-6.574154 9.344499,-8.429697 24.429921,-8.44467 14.47634,-0.01438 19.09064,1.605758 24.24434,8.512422 2.51042,3.364315 2.65922,5.335403 3.25566,43.125 l 0.625,39.59955 3.31492,5.63844 c 8.48688,14.4355 30.67427,16.68817 42.99698,4.36545 7.49359,-7.49359 8.0631,-11.13412 8.0631,-51.54255 0,-33.609864 0.0967,-34.998381 2.8125,-40.383978 3.88375,-7.701713 10.8165,-10.188467 26.60136,-9.541818 13.1317,0.537959 18.95181,2.779599 22.51607,8.672154 2.34908,3.883613 2.44507,6.774427 2.44507,73.638142 0,68.7968 -0.0302,69.63635 -2.63066,73.125 -5.20965,6.989 -9.71044,8.5304 -24.86934,8.51707 -16.91829,-0.0149 -20.84059,-1.66821 -24.64664,-10.38916 -1.4039,-3.21681 -2.74935,-6.07163 -2.98988,-6.34401 -0.24054,-0.2724 -3.0222,1.88737 -6.18148,4.79948 -11.47586,10.57808 -27.75661,14.629 -44.932,11.17982 z m 145.23239,-0.19749 c -6.20113,-1.99856 -10.48313,-6.23833 -12.06974,-11.95071 -0.79181,-2.85085 -1.26596,-29.41414 -1.25323,-70.21084 0.0191,-61.17285 0.17747,-65.970645 2.33447,-70.719826 2.84756,-6.269655 8.20833,-9.077959 19.30741,-10.114408 17.73431,-1.656055 28.51609,2.214496 31.6591,11.365303 0.92679,2.698338 1.93727,5.158277 2.24554,5.466532 0.30825,0.308249 3.25677,-1.837561 6.55226,-4.76848 11.92257,-10.603604 25.49471,-14.224996 42.38327,-11.308935 21.5982,3.729253 40.6445,18.831604 50.97232,40.417394 8.66228,18.10473 8.88621,19.81292 8.88621,67.78742 0,39.97075 -0.14551,42.74056 -2.44507,46.5423 -3.97653,6.57416 -9.3445,8.4297 -24.42993,8.44467 -14.47634,0.0144 -19.09064,-1.60576 -24.24434,-8.51242 -2.51042,-3.36431 -2.65922,-5.3354 -3.25566,-43.125 -0.62134,-39.36729 -0.64325,-39.63143 -3.73656,-45.03463 -8.32228,-14.53676 -30.84989,-16.91926 -43.20034,-4.56881 -7.48346,7.48346 -8.05869,11.14464 -8.09055,51.49491 -0.0316,40.06449 -0.62295,43.00697 -9.50148,47.28205 -6.00176,2.88989 -25.05656,3.78793 -32.11368,1.51348 z M 19.607391,59.670147 C 9.059801,56.25175 5.6780444,48.770395 6.478267,30.625 7.3415239,11.050276 12.07014,6.9362969 33.75,6.8981152 56.323735,6.8583593 61.195095,11.624427 61.195095,33.75 c 0,14.345766 -2.47737,21.156168 -8.909366,24.492255 -5.311997,2.755175 -25.818237,3.651204 -32.678338,1.427892 z"
     id="path4165"
     inkscape:connector-curvature="0" />
</svg>
